<?xml version="1.0" encoding="UTF-8"?>
<!-- Created with Inkscape (http://www.inkscape.org/) -->
<svg width="180mm" height="70mm" version="1.1" viewBox="0 0 180 70" xmlns="http://www.w3.org/2000/svg" xmlns:cc="http://creativecommons.org/ns#" xmlns:dc="http://purl.org/dc/elements/1.1/" xmlns:rdf="http://www.w3.org/1999/02/22-rdf-syntax-ns#">
 <metadata>
  <rdf:RDF>
   <cc:Work rdf:about="">
    <dc:format>image/svg+xml</dc:format>
    <dc:type rdf:resource="http://purl.org/dc/dcmitype/StillImage"/>
    <dc:title/>
   </cc:Work>
  </rdf:RDF>
 </metadata>
 <g transform="translate(0,-227)">
  <g transform="matrix(.35278 0 0 -.35278 172.21 230.57)">
   <path d="m0 0-14.297 14.296h-0.647l14.62-14.62z" fill="#b3b3b3"/>
  </g>
  <g transform="matrix(.35278 0 0 -.35278 171.01 231.77)">
   <path d="m0 0-17.694 17.694h-0.972l18.18-18.18z" fill="#b3b3b3"/>
  </g>
  <g transform="matrix(.35278 0 0 -.35278 169.81 232.97)">
   <path d="m0 0-21.093 21.093h-1.296l21.742-21.741z" fill="#b3b3b3"/>
  </g>
  <g transform="matrix(.35278 0 0 -.35278 168.61 234.17)">
   <path d="m0 0-24.491 24.491h-1.62l25.3-25.301z" fill="#b3b3b3"/>
  </g>
  <g transform="matrix(.35278 0 0 -.35278 167.42 235.37)">
   <path d="m0 0-27.891 27.891h-1.944l28.862-28.863z" fill="#b3b3b3"/>
  </g>
  <g transform="matrix(.35278 0 0 -.35278 166.22 236.57)">
   <path d="m0 0-31.29 31.289h-2.268l32.424-32.423z" fill="#b3b3b3"/>
  </g>
  <g transform="matrix(.35278 0 0 -.35278 165.02 237.76)">
   <path d="m0 0-34.688 34.688h-2.591l35.983-35.984z" fill="#b3b3b3"/>
  </g>
  <g transform="matrix(.35278 0 0 -.35278 163.82 238.96)">
   <path d="m0 0-38.086 38.086h-2.916l39.544-39.544z" fill="#b3b3b3"/>
  </g>
  <g transform="matrix(.35278 0 0 -.35278 173.47 229.31)">
   <path d="m0 0-10.736 10.737h-0.973l11.223-11.223z" fill="#b3b3b3"/>
  </g>
  <g transform="matrix(.35278 0 0 -.35278 174.72 228.06)">
   <path d="m0 0-7.177 7.176h-1.296l7.825-7.824z" fill="#b3b3b3"/>
  </g>
  <g transform="matrix(.35278 0 0 -.35278 175.98 226.8)">
   <path d="m0 0-3.615 3.616h-1.62l4.425-4.426z" fill="#b3b3b3"/>
  </g>
  <g transform="matrix(.35278 0 0 -.35278 172.1 230.68)">
   <path d="m0 0 42.878-42.878v0.648l-42.554 42.554z" fill="#b3b3b3"/>
  </g>
  <g transform="matrix(.35278 0 0 -.35278 170.84 231.94)">
   <path d="m0 0 46.438-46.439v0.972l-45.952 45.953z" fill="#b3b3b3"/>
  </g>
  <g transform="matrix(.35278 0 0 -.35278 169.59 233.2)">
   <path d="m0 0 49.998-49.999v1.296l-49.35 49.351z" fill="#b3b3b3"/>
  </g>
  <g transform="matrix(.35278 0 0 -.35278 168.33 234.45)">
   <path d="m0 0 53.56-53.559v1.62l-52.749 52.749z" fill="#b3b3b3"/>
  </g>
  <g transform="matrix(.35278 0 0 -.35278 167.07 235.71)">
   <path d="m0 0 57.12-57.12v1.944l-56.148 56.148z" fill="#b3b3b3"/>
  </g>
  <g transform="matrix(.35278 0 0 -.35278 165.82 236.97)">
   <path d="m0 0 60.681-60.681v2.268l-59.547 59.547z" fill="#b3b3b3"/>
  </g>
  <g transform="matrix(.35278 0 0 -.35278 164.56 238.22)">
   <path d="m0 0 64.241-64.242v2.592l-62.945 62.946z" fill="#b3b3b3"/>
  </g>
  <g transform="matrix(.35278 0 0 -.35278 163.82 238.96)">
   <path d="m0 0-1.458-1.458 65.978-65.98 1.823-1.822v2.916l-0.365 0.364z" fill="#b3b3b3"/>
  </g>
  <g transform="matrix(.35278 0 0 -.35278 173.3 229.49)">
   <path d="m0 0 39.48-39.48v0.971l-38.995 38.995z" fill="#b3b3b3"/>
  </g>
  <g transform="matrix(.35278 0 0 -.35278 174.49 228.29)">
   <path d="m0 0 36.082-36.082v1.296l-35.434 35.434z" fill="#b3b3b3"/>
  </g>
  <g transform="matrix(.35278 0 0 -.35278 175.69 227.09)">
   <path d="m0 0 32.684-32.685v1.621l-31.874 31.874z" fill="#b3b3b3"/>
  </g>
  <g transform="matrix(.35278 0 0 -.35278 176.89 225.89)">
   <path d="m0 0 29.285-29.286v1.944l-28.313 28.314z" fill="#b3b3b3"/>
  </g>
  <g transform="matrix(.35278 0 0 -.35278 178.93 225.53)">
   <path d="m0 0 23.515-23.515v2.268l-21.247 21.247z" fill="#b3b3b3"/>
  </g>
  <g transform="matrix(.35278 0 0 -.35278 129.3 226.93)">
   <path d="m0 0-3.986 3.987h-0.649l4.312-4.311z" fill="#b3b3b3"/>
  </g>
  <g transform="matrix(.35278 0 0 -.35278 128.1 228.13)">
   <path d="m0 0-7.386 7.386h-0.971l7.871-7.872z" fill="#b3b3b3"/>
  </g>
  <g transform="matrix(.35278 0 0 -.35278 126.9 229.33)">
   <path d="m0 0-10.783 10.784h-1.296l11.431-11.432z" fill="#b3b3b3"/>
  </g>
  <g transform="matrix(.35278 0 0 -.35278 125.7 230.53)">
   <path d="m0 0-14.182 14.182h-1.62l14.992-14.992z" fill="#b3b3b3"/>
  </g>
  <g transform="matrix(.35278 0 0 -.35278 124.5 231.73)">
   <path d="m0 0-17.581 17.581h-1.943l18.552-18.553z" fill="#b3b3b3"/>
  </g>
  <g transform="matrix(.35278 0 0 -.35278 123.3 232.93)">
   <path d="m0 0-20.98 20.979h-2.268l22.113-22.113z" fill="#b3b3b3"/>
  </g>
  <g transform="matrix(.35278 0 0 -.35278 122.1 234.13)">
   <path d="m0 0-24.378 24.378h-2.592l25.674-25.674z" fill="#b3b3b3"/>
  </g>
  <g transform="matrix(.35278 0 0 -.35278 120.9 235.33)">
   <path d="m0 0-27.776 27.777h-2.916l29.234-29.235z" fill="#b3b3b3"/>
  </g>
  <g transform="matrix(.35278 0 0 -.35278 152.46 250.32)">
   <path d="m0 0 0.324 0.324-65.978 65.979-0.325-0.324z" fill="#b3b3b3"/>
  </g>
  <g transform="matrix(.35278 0 0 -.35278 151.37 251.41)">
   <path d="m0 0-65.979 65.979-0.487-0.486 65.981-65.979z" fill="#b3b3b3"/>
  </g>
  <g transform="matrix(.35278 0 0 -.35278 126.67 229.56)">
   <path d="m0 0 65.979-65.979 0.649 0.647-65.981 65.98z" fill="#b3b3b3"/>
  </g>
  <g transform="matrix(.35278 0 0 -.35278 125.41 230.82)">
   <path d="m0 0 65.979-65.98 0.811 0.81-65.979 65.98z" fill="#b3b3b3"/>
  </g>
  <g transform="matrix(.35278 0 0 -.35278 124.16 232.07)">
   <path d="m0 0 65.979-65.979 0.973 0.971-65.979 65.98z" fill="#b3b3b3"/>
  </g>
  <g transform="matrix(.35278 0 0 -.35278 122.9 233.33)">
   <path d="m0 0 65.979-65.979 1.133 1.133-65.978 65.98z" fill="#b3b3b3"/>
  </g>
  <g transform="matrix(.35278 0 0 -.35278 121.65 234.58)">
   <path d="m0 0 65.979-65.979 1.295 1.295-65.978 65.98z" fill="#b3b3b3"/>
  </g>
  <g transform="matrix(.35278 0 0 -.35278 144.18 258.6)">
   <path d="m0 0-65.98 65.979-1.458-1.458 65.98-65.979z" fill="#b3b3b3"/>
  </g>
  <g transform="matrix(.35278 0 0 -.35278 153.66 249.13)">
   <path d="m0 0 0.485 0.486-65.979 65.979-0.486-0.486z" fill="#b3b3b3"/>
  </g>
  <g transform="matrix(.35278 0 0 -.35278 155.08 247.7)">
   <path d="m0 0-62.848 62.847h-1.296l63.497-63.495z" fill="#b3b3b3"/>
  </g>
  <g transform="matrix(.35278 0 0 -.35278 156.34 246.44)">
   <path d="m0 0-59.286 59.286h-1.619l60.094-60.096z" fill="#b3b3b3"/>
  </g>
  <g transform="matrix(.35278 0 0 -.35278 157.6 245.19)">
   <path d="m0 0-55.726 55.726h-1.943l56.697-56.698z" fill="#b3b3b3"/>
  </g>
  <g transform="matrix(.35278 0 0 -.35278 158.85 243.93)">
   <path d="m0 0-52.164 52.165h-2.268l53.298-53.299z" fill="#b3b3b3"/>
  </g>
  <g transform="matrix(.35278 0 0 -.35278 160.11 242.67)">
   <path d="m0 0-48.604 48.604h-2.592l49.9-49.9z" fill="#b3b3b3"/>
  </g>
  <g transform="matrix(.35278 0 0 -.35278 161.36 241.42)">
   <path d="m0 0-45.044 45.043h-2.916l46.502-46.501z" fill="#b3b3b3"/>
  </g>
  <g transform="matrix(.35278 0 0 -.35278 162.33 240.45)">
   <path d="m0 0 0.81 0.81-41.483 41.483h-3.24l43.102-43.103z" fill="#b3b3b3"/>
  </g>
  <g transform="matrix(.35278 0 0 -.35278 142.98 259.8)">
   <path d="m0 0-65.979 65.979-0.81-0.81-0.81-0.809 65.979-65.98 0.81 0.81z" fill="#b3b3b3"/>
  </g>
  <g transform="matrix(.35278 0 0 -.35278 175.85 273.49)">
   <path d="m0 0-65.98 65.979-0.324-0.324 65.98-65.979z" fill="#b3b3b3"/>
  </g>
  <g transform="matrix(.35278 0 0 -.35278 174.65 274.68)">
   <path d="m0 0-65.98 65.979-0.486-0.486 65.98-65.979z" fill="#b3b3b3"/>
  </g>
  <g transform="matrix(.35278 0 0 -.35278 173.45 275.88)">
   <path d="m0 0-65.979 65.979-0.648-0.647 65.98-65.98z" fill="#b3b3b3"/>
  </g>
  <g transform="matrix(.35278 0 0 -.35278 172.25 277.08)">
   <path d="m0 0-65.979 65.98-0.809-0.81 65.978-65.98z" fill="#b3b3b3"/>
  </g>
  <g transform="matrix(.35278 0 0 -.35278 171.05 278.28)">
   <path d="m0 0-65.979 65.979-0.972-0.971 65.978-65.98z" fill="#b3b3b3"/>
  </g>
  <g transform="matrix(.35278 0 0 -.35278 169.85 279.48)">
   <path d="m0 0-65.98 65.979-1.134-1.134 65.98-65.979z" fill="#b3b3b3"/>
  </g>
  <g transform="matrix(.35278 0 0 -.35278 168.65 280.68)">
   <path d="m0 0-65.979 65.979-1.296-1.295 65.979-65.98z" fill="#b3b3b3"/>
  </g>
  <g transform="matrix(.35278 0 0 -.35278 167.46 281.88)">
   <path d="m0 0-65.979 65.979-1.458-1.458 65.979-65.979z" fill="#b3b3b3"/>
  </g>
  <g transform="matrix(.35278 0 0 -.35278 177.1 272.23)">
   <path d="m0 0-65.979 65.979-0.486-0.486 65.979-65.979z" fill="#b3b3b3"/>
  </g>
  <g transform="matrix(.35278 0 0 -.35278 178.36 270.97)">
   <path d="m0 0-65.979 65.979-0.648-0.647 65.98-65.98z" fill="#b3b3b3"/>
  </g>
  <g transform="matrix(.35278 0 0 -.35278 179.62 269.72)">
   <path d="m0 0-65.979 65.979-0.81-0.81 65.979-65.979z" fill="#b3b3b3"/>
  </g>
  <g transform="matrix(.35278 0 0 -.35278 180.87 268.46)">
   <path d="m0 0-65.979 65.979-0.973-0.972 65.98-65.979z" fill="#b3b3b3"/>
  </g>
  <g transform="matrix(.35278 0 0 -.35278 182.13 267.21)">
   <path d="m0 0-65.98 65.979-1.134-1.134 65.98-65.979z" fill="#b3b3b3"/>
  </g>
  <g transform="matrix(.35278 0 0 -.35278 183.38 265.95)">
   <path d="m0 0-65.978 65.98-1.296-1.296 65.978-65.98z" fill="#b3b3b3"/>
  </g>
  <g transform="matrix(.35278 0 0 -.35278 184.64 264.69)">
   <path d="m0 0-65.979 65.979-1.458-1.457 65.979-65.98z" fill="#b3b3b3"/>
  </g>
  <g transform="matrix(.35278 0 0 -.35278 185.61 263.72)">
   <path d="m0 0 0.81 0.81-65.98 65.98-0.809-0.811-0.811-0.81 65.98-65.979z" fill="#b3b3b3"/>
  </g>
  <g transform="matrix(.35278 0 0 -.35278 166.26 283.08)">
   <path d="m0 0-65.98 65.979-1.62-1.62 65.98-65.979 0.809 0.81z" fill="#b3b3b3"/>
  </g>
  <g transform="matrix(.35278 0 0 -.35278 175.73 273.6)">
   <path d="m0 0 32.568-32.569v0.648l-32.244 32.245z" fill="#b3b3b3"/>
  </g>
  <g transform="matrix(.35278 0 0 -.35278 174.48 274.86)">
   <path d="m0 0 36.129-36.129v0.972l-35.643 35.643z" fill="#b3b3b3"/>
  </g>
  <g transform="matrix(.35278 0 0 -.35278 173.22 276.11)">
   <path d="m0 0 39.689-39.689v1.295l-39.041 39.042z" fill="#b3b3b3"/>
  </g>
  <g transform="matrix(.35278 0 0 -.35278 171.97 277.37)">
   <path d="m0 0 43.25-43.25v1.621l-42.439 42.439z" fill="#b3b3b3"/>
  </g>
  <g transform="matrix(.35278 0 0 -.35278 170.71 278.62)">
   <path d="m0 0 46.811-46.811v1.944l-45.838 45.839z" fill="#b3b3b3"/>
  </g>
  <g transform="matrix(.35278 0 0 -.35278 169.45 279.88)">
   <path d="m0 0 50.371-50.372v2.268l-49.237 49.238z" fill="#b3b3b3"/>
  </g>
  <g transform="matrix(.35278 0 0 -.35278 168.2 281.14)">
   <path d="m0 0 49.511-49.511h2.592l-50.807 50.807z" fill="#b3b3b3"/>
  </g>
  <g transform="matrix(.35278 0 0 -.35278 166.94 282.39)">
   <path d="m0 0 45.951-45.951h2.916l-47.409 47.409z" fill="#b3b3b3"/>
  </g>
  <g transform="matrix(.35278 0 0 -.35278 176.93 272.4)">
   <path d="m0 0 29.171-29.171v0.972l-28.686 28.685z" fill="#b3b3b3"/>
  </g>
  <g transform="matrix(.35278 0 0 -.35278 178.13 271.2)">
   <path d="m0 0 25.772-25.773v1.296l-25.124 25.125z" fill="#b3b3b3"/>
  </g>
  <g transform="matrix(.35278 0 0 -.35278 179.33 270)">
   <path d="m0 0 22.374-22.375v1.621l-21.564 21.564z" fill="#b3b3b3"/>
  </g>
  <g transform="matrix(.35278 0 0 -.35278 165.97 283.36)">
   <path d="m0 0-0.81-0.81 42.393-42.392h3.239l-44.011 44.012z" fill="#b3b3b3"/>
  </g>
  <g transform="matrix(.35278 0 0 -.35278 82.784 226.89)">
   <path d="m0 0-3.873 3.873h-1.62l4.682-4.683z" fill="#b3b3b3"/>
  </g>
  <g transform="matrix(.35278 0 0 -.35278 81.585 228.09)">
   <path d="m0 0-7.272 7.272h-1.944l8.244-8.244z" fill="#b3b3b3"/>
  </g>
  <g transform="matrix(.35278 0 0 -.35278 80.386 229.29)">
   <path d="m0 0-10.671 10.67h-2.267l11.804-11.804z" fill="#b3b3b3"/>
  </g>
  <g transform="matrix(.35278 0 0 -.35278 79.187 230.49)">
   <path d="m0 0-14.069 14.069h-2.592l15.365-15.365z" fill="#b3b3b3"/>
  </g>
  <g transform="matrix(.35278 0 0 -.35278 77.988 231.69)">
   <path d="m0 0-17.467 17.467h-2.916l18.925-18.925z" fill="#b3b3b3"/>
  </g>
  <g transform="matrix(.35278 0 0 -.35278 109.66 246.57)">
   <path d="m0 0-59.657 59.657h-0.648l59.981-59.981z" fill="#b3b3b3"/>
  </g>
  <g transform="matrix(.35278 0 0 -.35278 108.46 247.77)">
   <path d="m0 0-63.056 63.055h-0.972l63.542-63.541z" fill="#b3b3b3"/>
  </g>
  <g transform="matrix(.35278 0 0 -.35278 107.03 249.2)">
   <path d="m0 0 0.647 0.648-65.979 65.979-0.648-0.648z" fill="#b3b3b3"/>
  </g>
  <g transform="matrix(.35278 0 0 -.35278 105.77 250.46)">
   <path d="m0 0 0.811 0.81-65.98 65.98-0.811-0.811z" fill="#b3b3b3"/>
  </g>
  <g transform="matrix(.35278 0 0 -.35278 104.86 251.37)">
   <path d="m0 0-65.98 65.979-0.971-0.971 65.978-65.98z" fill="#b3b3b3"/>
  </g>
  <g transform="matrix(.35278 0 0 -.35278 79.986 229.69)">
   <path d="m0 0 65.98-65.979 1.133 1.133-65.979 65.98z" fill="#b3b3b3"/>
  </g>
  <g transform="matrix(.35278 0 0 -.35278 78.73 230.95)">
   <path d="m0 0 65.98-65.979 1.295 1.296-65.979 65.979z" fill="#b3b3b3"/>
  </g>
  <g transform="matrix(.35278 0 0 -.35278 77.474 232.2)">
   <path d="m0 0 65.98-65.979 1.458 1.458-65.98 65.979z" fill="#b3b3b3"/>
  </g>
  <g transform="matrix(.35278 0 0 -.35278 110.91 245.32)">
   <path d="m0 0-56.098 56.097h-0.971l56.584-56.583z" fill="#b3b3b3"/>
  </g>
  <g transform="matrix(.35278 0 0 -.35278 112.17 244.06)">
   <path d="m0 0-52.538 52.537h-1.296l53.186-53.185z" fill="#b3b3b3"/>
  </g>
  <g transform="matrix(.35278 0 0 -.35278 113.42 242.81)">
   <path d="m0 0-48.977 48.977h-1.62l49.787-49.787z" fill="#b3b3b3"/>
  </g>
  <g transform="matrix(.35278 0 0 -.35278 114.68 241.55)">
   <path d="m0 0-45.416 45.417h-1.944l46.388-46.389z" fill="#b3b3b3"/>
  </g>
  <g transform="matrix(.35278 0 0 -.35278 115.94 240.29)">
   <path d="m0 0-41.854 41.855h-2.269l42.989-42.989z" fill="#b3b3b3"/>
  </g>
  <g transform="matrix(.35278 0 0 -.35278 117.19 239.04)">
   <path d="m0 0-38.294 38.295h-2.592l39.59-39.591z" fill="#b3b3b3"/>
  </g>
  <g transform="matrix(.35278 0 0 -.35278 118.45 237.78)">
   <path d="m0 0-34.734 34.734h-2.916l36.192-36.192z" fill="#b3b3b3"/>
  </g>
  <g transform="matrix(.35278 0 0 -.35278 119.42 236.81)">
   <path d="m0 0 0.811 0.81-31.175 31.174h-3.24l32.794-32.794z" fill="#b3b3b3"/>
  </g>
  <g transform="matrix(.35278 0 0 -.35278 76.504 233.17)">
   <path d="m0 0-0.811-0.81 65.98-65.98 0.811 0.811 0.809 0.81-65.979 65.979z" fill="#b3b3b3"/>
  </g>
  <g transform="matrix(.35278 0 0 -.35278 132.93 269.85)">
   <path d="m0 0-65.979 65.979-0.325-0.324 65.98-65.979z" fill="#b3b3b3"/>
  </g>
  <g transform="matrix(.35278 0 0 -.35278 108.46 247.77)">
   <path d="m0 0-0.485-0.486 65.978-65.979 0.486 0.486z" fill="#b3b3b3"/>
  </g>
  <g transform="matrix(.35278 0 0 -.35278 130.54 272.25)">
   <path d="m0 0-65.979 65.98-0.648-0.648 65.979-65.98z" fill="#b3b3b3"/>
  </g>
  <g transform="matrix(.35278 0 0 -.35278 129.34 273.45)">
   <path d="m0 0-65.979 65.979-0.811-0.81 65.98-65.979z" fill="#b3b3b3"/>
  </g>
  <g transform="matrix(.35278 0 0 -.35278 128.14 274.64)">
   <path d="m0 0-65.979 65.979-0.973-0.972 65.98-65.979z" fill="#b3b3b3"/>
  </g>
  <g transform="matrix(.35278 0 0 -.35278 126.94 275.84)">
   <path d="m0 0-65.98 65.979-1.134-1.134 65.979-65.979z" fill="#b3b3b3"/>
  </g>
  <g transform="matrix(.35278 0 0 -.35278 125.74 277.04)">
   <path d="m0 0-65.979 65.979-1.296-1.295 65.979-65.98z" fill="#b3b3b3"/>
  </g>
  <g transform="matrix(.35278 0 0 -.35278 124.54 278.24)">
   <path d="m0 0-65.979 65.979-1.458-1.458 65.979-65.979z" fill="#b3b3b3"/>
  </g>
  <g transform="matrix(.35278 0 0 -.35278 134.19 268.59)">
   <path d="m0 0-65.979 65.98-0.486-0.486 65.979-65.98z" fill="#b3b3b3"/>
  </g>
  <g transform="matrix(.35278 0 0 -.35278 112.17 244.06)">
   <path d="m0 0-0.648-0.648 65.979-65.979 0.648 0.648z" fill="#b3b3b3"/>
  </g>
  <g transform="matrix(.35278 0 0 -.35278 136.7 266.08)">
   <path d="m0 0-65.98 65.979-0.81-0.81 65.979-65.979z" fill="#b3b3b3"/>
  </g>
  <g transform="matrix(.35278 0 0 -.35278 137.96 264.83)">
   <path d="m0 0-65.98 65.979-0.972-0.972 65.979-65.979z" fill="#b3b3b3"/>
  </g>
  <g transform="matrix(.35278 0 0 -.35278 115.54 240.69)">
   <path d="m0 0 65.979-65.979 1.134 1.134-65.979 65.979z" fill="#b3b3b3"/>
  </g>
  <g transform="matrix(.35278 0 0 -.35278 116.74 239.49)">
   <path d="m0 0 65.98-65.979 1.296 1.296-65.98 65.979z" fill="#b3b3b3"/>
  </g>
  <g transform="matrix(.35278 0 0 -.35278 141.73 261.06)">
   <path d="m0 0-65.979 65.979-1.459-1.458 65.98-65.979z" fill="#b3b3b3"/>
  </g>
  <g transform="matrix(.35278 0 0 -.35278 132.93 269.85)">
   <path d="m0 0-0.323-0.324 65.978-65.979 15.205-15.205h0.648l-15.529 15.529z" fill="#b3b3b3"/>
  </g>
  <g transform="matrix(.35278 0 0 -.35278 131.73 271.05)">
   <path d="m0 0-0.486-0.486 77.625-77.624h0.971l-12.131 12.131z" fill="#b3b3b3"/>
  </g>
  <g transform="matrix(.35278 0 0 -.35278 153.81 295.52)">
   <path d="m0 0-65.979 65.979-0.649-0.648 65.981-65.979z" fill="#b3b3b3"/>
  </g>
  <g transform="matrix(.35278 0 0 -.35278 129.34 273.45)">
   <path d="m0 0-0.81-0.81 65.979-65.98 0.81 0.811z" fill="#b3b3b3"/>
  </g>
  <g transform="matrix(.35278 0 0 -.35278 128.14 274.64)">
   <path d="m0 0-0.972-0.972 65.979-65.979 0.972 0.972z" fill="#b3b3b3"/>
  </g>
  <g transform="matrix(.35278 0 0 -.35278 126.54 276.24)">
   <path d="m0 0 63.381-63.382h2.268l-64.514 64.516z" fill="#b3b3b3"/>
  </g>
  <g transform="matrix(.35278 0 0 -.35278 125.28 277.5)">
   <path d="m0 0 59.821-59.821h2.592l-61.117 61.117z" fill="#b3b3b3"/>
  </g>
  <g transform="matrix(.35278 0 0 -.35278 124.03 278.76)">
   <path d="m0 0 56.262-56.261h2.916l-57.72 57.719z" fill="#b3b3b3"/>
  </g>
  <g transform="matrix(.35278 0 0 -.35278 157.46 291.87)">
   <path d="m0 0-65.979 65.979-0.487-0.486 65.981-65.979z" fill="#b3b3b3"/>
  </g>
  <g transform="matrix(.35278 0 0 -.35278 135.44 267.34)">
   <path d="m0 0-0.648-0.648 87.98-87.98h1.296l-22.649 22.649z" fill="#b3b3b3"/>
  </g>
  <g transform="matrix(.35278 0 0 -.35278 136.7 266.08)">
   <path d="m0 0-0.81-0.81 65.979-65.98 25.399-25.398h1.62l-26.209 26.209z" fill="#b3b3b3"/>
  </g>
  <g transform="matrix(.35278 0 0 -.35278 161.23 288.1)">
   <path d="m0 0-65.979 65.979-0.972-0.972 65.979-65.979z" fill="#b3b3b3"/>
  </g>
  <g transform="matrix(.35278 0 0 -.35278 162.49 286.84)">
   <path d="m0 0-65.979 65.979-1.134-1.134 65.979-65.979z" fill="#b3b3b3"/>
  </g>
  <g transform="matrix(.35278 0 0 -.35278 163.75 285.59)">
   <path d="m0 0-65.979 65.979-1.296-1.295 65.979-65.98z" fill="#b3b3b3"/>
  </g>
  <g transform="matrix(.35278 0 0 -.35278 165 284.33)">
   <path d="m0 0-65.979 65.98-1.459-1.458 65.98-65.98z" fill="#b3b3b3"/>
  </g>
  <g transform="matrix(.35278 0 0 -.35278 123.06 279.73)">
   <path d="m0 0-0.81-0.81 52.702-52.701h3.239l-54.32 54.321z" fill="#b3b3b3"/>
  </g>
  <g transform="matrix(.35278 0 0 -.35278 153.58 295.75)">
   <path d="m0 0 8.084-8.083h1.296l-8.732 8.731z" fill="#b3b3b3"/>
  </g>
  <g transform="matrix(.35278 0 0 -.35278 152.33 297.01)">
   <path d="m0 0 4.523-4.523h1.62l-5.333 5.333z" fill="#b3b3b3"/>
  </g>
  <g transform="matrix(.35278 0 0 -.35278 157.29 292.04)">
   <path d="m0 0 18.602-18.602h0.972l-19.089 19.088z" fill="#b3b3b3"/>
  </g>
  <g transform="matrix(.35278 0 0 -.35278 160.89 288.44)">
   <path d="m0 0 28.798-28.797h1.943l-29.769 29.769z" fill="#b3b3b3"/>
  </g>
  <g transform="matrix(.35278 0 0 -.35278 162.09 287.25)">
   <path d="m0 0 32.197-32.197h2.268l-33.331 33.331z" fill="#b3b3b3"/>
  </g>
  <g transform="matrix(.35278 0 0 -.35278 163.29 286.05)">
   <path d="m0 0 35.595-35.595h2.592l-36.891 36.891z" fill="#b3b3b3"/>
  </g>
  <g transform="matrix(.35278 0 0 -.35278 164.49 284.85)">
   <path d="m0 0 38.993-38.993h2.916l-40.451 40.451z" fill="#b3b3b3"/>
  </g>
  <g transform="matrix(.35278 0 0 -.35278 66.741 242.94)">
   <path d="m0 0-49.348 49.348h-0.648l49.672-49.672z" fill="#b3b3b3"/>
  </g>
  <g transform="matrix(.35278 0 0 -.35278 65.542 244.13)">
   <path d="m0 0-52.746 52.746h-0.972l53.233-53.232z" fill="#b3b3b3"/>
  </g>
  <g transform="matrix(.35278 0 0 -.35278 64.343 245.33)">
   <path d="m0 0-56.145 56.145h-1.295l56.793-56.793z" fill="#b3b3b3"/>
  </g>
  <g transform="matrix(.35278 0 0 -.35278 63.145 246.53)">
   <path d="m0 0-59.543 59.543h-1.619l60.352-60.353z" fill="#b3b3b3"/>
  </g>
  <g transform="matrix(.35278 0 0 -.35278 61.945 247.73)">
   <path d="m0 0-62.942 62.942h-1.944l63.914-63.914z" fill="#b3b3b3"/>
  </g>
  <g transform="matrix(.35278 0 0 -.35278 60.346 249.33)">
   <path d="m0 0 1.135 1.134-65.981 65.979-1.133-1.134z" fill="#b3b3b3"/>
  </g>
  <g transform="matrix(.35278 0 0 -.35278 59.09 250.59)">
   <path d="m0 0 1.296 1.296-65.98 65.979-3.758 3.76h-2.593l5.056-5.056z" fill="#b3b3b3"/>
  </g>
  <g transform="matrix(.35278 0 0 -.35278 57.835 251.84)">
   <path d="m0 0 1.458 1.458-65.979 65.98-7.159 7.157h-2.916l8.617-8.616z" fill="#b3b3b3"/>
  </g>
  <g transform="matrix(.35278 0 0 -.35278 67.997 241.68)">
   <path d="m0 0-45.789 45.789h-0.972l46.275-46.275z" fill="#b3b3b3"/>
  </g>
  <g transform="matrix(.35278 0 0 -.35278 69.253 240.42)">
   <path d="m0 0-42.228 42.228h-1.295l42.876-42.876z" fill="#b3b3b3"/>
  </g>
  <g transform="matrix(.35278 0 0 -.35278 70.509 239.17)">
   <path d="m0 0-38.668 38.668h-1.62l39.477-39.478z" fill="#b3b3b3"/>
  </g>
  <g transform="matrix(.35278 0 0 -.35278 71.765 237.91)">
   <path d="m0 0-35.107 35.107h-1.944l36.078-36.079z" fill="#b3b3b3"/>
  </g>
  <g transform="matrix(.35278 0 0 -.35278 73.022 236.66)">
   <path d="m0 0-31.546 31.545h-2.267l32.679-32.679z" fill="#b3b3b3"/>
  </g>
  <g transform="matrix(.35278 0 0 -.35278 74.277 235.4)">
   <path d="m0 0-27.985 27.985h-2.592l29.281-29.281z" fill="#b3b3b3"/>
  </g>
  <g transform="matrix(.35278 0 0 -.35278 75.533 234.14)">
   <path d="m0 0-24.425 24.425h-2.916l25.883-25.883z" fill="#b3b3b3"/>
  </g>
  <g transform="matrix(.35278 0 0 -.35278 76.504 233.17)">
   <path d="m0 0 0.81 0.81-20.866 20.865h-3.239l22.484-22.485z" fill="#b3b3b3"/>
  </g>
  <g transform="matrix(.35278 0 0 -.35278 66.627 243.05)">
   <path d="m0 0 65.98-65.979 0.325 0.323-65.981 65.98z" fill="#b3b3b3"/>
  </g>
  <g transform="matrix(.35278 0 0 -.35278 65.371 244.31)">
   <path d="m0 0 65.979-65.979 0.486 0.485-65.98 65.98z" fill="#b3b3b3"/>
  </g>
  <g transform="matrix(.35278 0 0 -.35278 64.115 245.56)">
   <path d="m0 0 65.979-65.979 0.649 0.648-65.98 65.979z" fill="#b3b3b3"/>
  </g>
  <g transform="matrix(.35278 0 0 -.35278 62.859 246.82)">
   <path d="m0 0 65.979-65.979 0.81 0.81-65.979 65.979z" fill="#b3b3b3"/>
  </g>
  <g transform="matrix(.35278 0 0 -.35278 61.603 248.07)">
   <path d="m0 0 65.979-65.979 0.972 0.972-65.978 65.979z" fill="#b3b3b3"/>
  </g>
  <g transform="matrix(.35278 0 0 -.35278 84.023 272.21)">
   <path d="m0 0-65.979 65.979-1.134-1.134 65.979-65.979z" fill="#b3b3b3"/>
  </g>
  <g transform="matrix(.35278 0 0 -.35278 82.824 273.41)">
   <path d="m0 0-65.979 65.979-1.295-1.295 65.978-65.98z" fill="#b3b3b3"/>
  </g>
  <g transform="matrix(.35278 0 0 -.35278 81.625 274.6)">
   <path d="m0 0-65.979 65.98-1.459-1.458 65.98-65.98z" fill="#b3b3b3"/>
  </g>
  <g transform="matrix(.35278 0 0 -.35278 67.825 241.85)">
   <path d="m0 0 65.98-65.979 0.486 0.485-65.98 65.98z" fill="#b3b3b3"/>
  </g>
  <g transform="matrix(.35278 0 0 -.35278 69.025 240.65)">
   <path d="m0 0 65.98-65.979 0.647 0.647-65.98 65.98z" fill="#b3b3b3"/>
  </g>
  <g transform="matrix(.35278 0 0 -.35278 70.223 239.45)">
   <path d="m0 0 65.98-65.979 0.81 0.809-65.979 65.98z" fill="#b3b3b3"/>
  </g>
  <g transform="matrix(.35278 0 0 -.35278 71.422 238.26)">
   <path d="m0 0 65.979-65.98 0.971 0.972-65.978 65.98z" fill="#b3b3b3"/>
  </g>
  <g transform="matrix(.35278 0 0 -.35278 72.622 237.06)">
   <path d="m0 0 65.979-65.98 1.133 1.134-65.978 65.98z" fill="#b3b3b3"/>
  </g>
  <g transform="matrix(.35278 0 0 -.35278 73.82 235.86)">
   <path d="m0 0 65.98-65.979 1.296 1.296-65.98 65.979z" fill="#b3b3b3"/>
  </g>
  <g transform="matrix(.35278 0 0 -.35278 75.019 234.66)">
   <path d="m0 0 65.98-65.979 1.458 1.458-65.98 65.979z" fill="#b3b3b3"/>
  </g>
  <g transform="matrix(.35278 0 0 -.35278 113.29 289.49)">
   <path d="m0 0-65.98 65.979-0.324-0.323 65.98-65.98z" fill="#b3b3b3"/>
  </g>
  <g transform="matrix(.35278 0 0 -.35278 112.09 290.69)">
   <path d="m0 0-65.98 65.98-0.486-0.486 65.98-65.98z" fill="#b3b3b3"/>
  </g>
  <g transform="matrix(.35278 0 0 -.35278 110.9 291.89)">
   <path d="m0 0-65.979 65.979-0.648-0.647 65.98-65.98z" fill="#b3b3b3"/>
  </g>
  <g transform="matrix(.35278 0 0 -.35278 109.7 293.08)">
   <path d="m0 0-65.979 65.979-0.81-0.81 65.979-65.979z" fill="#b3b3b3"/>
  </g>
  <g transform="matrix(.35278 0 0 -.35278 108.5 294.28)">
   <path d="m0 0-65.98 65.979-0.972-0.972 65.979-65.979z" fill="#b3b3b3"/>
  </g>
  <g transform="matrix(.35278 0 0 -.35278 107.3 295.48)">
   <path d="m0 0-65.98 65.979-1.133-1.133 65.979-65.98z" fill="#b3b3b3"/>
  </g>
  <g transform="matrix(.35278 0 0 -.35278 82.824 273.41)">
   <path d="m0 0-1.296-1.296 65.98-65.979 1.296 1.296z" fill="#b3b3b3"/>
  </g>
  <g transform="matrix(.35278 0 0 -.35278 81.625 274.6)">
   <path d="m0 0-1.458-1.458 65.979-65.98 1.459 1.459z" fill="#b3b3b3"/>
  </g>
  <g transform="matrix(.35278 0 0 -.35278 114.55 288.23)">
   <path d="m0 0-65.979 65.979-0.486-0.485 65.979-65.98z" fill="#b3b3b3"/>
  </g>
  <g transform="matrix(.35278 0 0 -.35278 115.81 286.98)">
   <path d="m0 0-65.979 65.979-0.648-0.647 65.98-65.98z" fill="#b3b3b3"/>
  </g>
  <g transform="matrix(.35278 0 0 -.35278 117.06 285.72)">
   <path d="m0 0-65.979 65.979-0.811-0.81 65.98-65.979z" fill="#b3b3b3"/>
  </g>
  <g transform="matrix(.35278 0 0 -.35278 118.32 284.46)">
   <path d="m0 0-65.98 65.979-0.972-0.972 65.98-65.979z" fill="#b3b3b3"/>
  </g>
  <g transform="matrix(.35278 0 0 -.35278 119.57 283.21)">
   <path d="m0 0-65.98 65.979-1.134-1.133 65.98-65.98z" fill="#b3b3b3"/>
  </g>
  <g transform="matrix(.35278 0 0 -.35278 120.83 281.95)">
   <path d="m0 0-65.979 65.979-1.295-1.295 65.978-65.98z" fill="#b3b3b3"/>
  </g>
  <g transform="matrix(.35278 0 0 -.35278 122.09 280.7)">
   <path d="m0 0-65.979 65.979-1.459-1.458 65.98-65.979z" fill="#b3b3b3"/>
  </g>
  <g transform="matrix(.35278 0 0 -.35278 123.06 279.73)">
   <path d="m0 0 0.811 0.81-65.981 65.98-0.809-0.811-0.811-0.81 65.98-65.979z" fill="#b3b3b3"/>
  </g>
  <g transform="matrix(.35278 0 0 -.35278 80.141 276.09)">
   <path d="m0 0-0.81-0.81 63.011-63.01h3.239l-64.629 64.63z" fill="#b3b3b3"/>
  </g>
  <g transform="matrix(.35278 0 0 -.35278 113.18 289.6)">
   <path d="m0 0 25.514-25.514h0.648l-25.838 25.838z" fill="#b3b3b3"/>
  </g>
  <g transform="matrix(.35278 0 0 -.35278 111.92 290.86)">
   <path d="m0 0 21.954-21.953h0.972l-22.44 22.439z" fill="#b3b3b3"/>
  </g>
  <g transform="matrix(.35278 0 0 -.35278 110.67 292.11)">
   <path d="m0 0 18.393-18.393h1.295l-19.041 19.041z" fill="#b3b3b3"/>
  </g>
  <g transform="matrix(.35278 0 0 -.35278 109.41 293.37)">
   <path d="m0 0 14.833-14.833h1.62l-15.642 15.643z" fill="#b3b3b3"/>
  </g>
  <g transform="matrix(.35278 0 0 -.35278 108.15 294.63)">
   <path d="m0 0 11.272-11.271h1.944l-12.243 12.243z" fill="#b3b3b3"/>
  </g>
  <g transform="matrix(.35278 0 0 -.35278 106.9 295.88)">
   <path d="m0 0 7.711-7.711h2.268l-8.845 8.845z" fill="#b3b3b3"/>
  </g>
  <g transform="matrix(.35278 0 0 -.35278 105.64 297.14)">
   <path d="m0 0 4.151-4.151h2.592l-5.447 5.447z" fill="#b3b3b3"/>
  </g>
  <g transform="matrix(.35278 0 0 -.35278 114.38 288.4)">
   <path d="m0 0 28.911-28.911h0.972l-29.398 29.397z" fill="#b3b3b3"/>
  </g>
  <g transform="matrix(.35278 0 0 -.35278 115.58 287.21)">
   <path d="m0 0 32.31-32.31h1.295l-32.957 32.958z" fill="#b3b3b3"/>
  </g>
  <g transform="matrix(.35278 0 0 -.35278 116.78 286.01)">
   <path d="m0 0 35.708-35.708h1.62l-36.518 36.518z" fill="#b3b3b3"/>
  </g>
  <g transform="matrix(.35278 0 0 -.35278 117.97 284.81)">
   <path d="m0 0 39.106-39.106h1.945l-40.079 40.078z" fill="#b3b3b3"/>
  </g>
  <g transform="matrix(.35278 0 0 -.35278 119.17 283.61)">
   <path d="m0 0 42.506-42.506h2.267l-43.639 43.64z" fill="#b3b3b3"/>
  </g>
  <g transform="matrix(.35278 0 0 -.35278 120.37 282.41)">
   <path d="m0 0 45.904-45.904h2.592l-47.2 47.2z" fill="#b3b3b3"/>
  </g>
  <g transform="matrix(.35278 0 0 -.35278 121.57 281.21)">
   <path d="m0 0 49.303-49.302h2.916l-50.761 50.76z" fill="#b3b3b3"/>
  </g>
  <g transform="matrix(.35278 0 0 -.35278 26.338 236.79)">
   <path d="m0 0-31.918 31.918h-1.296l32.567-32.566z" fill="#b3b3b3"/>
  </g>
  <g transform="matrix(.35278 0 0 -.35278 46.988 262.69)">
   <path d="m0 0 0.324 0.324-105.02 105.02h-0.648l39.363-39.363z" fill="#b3b3b3"/>
  </g>
  <g transform="matrix(.35278 0 0 -.35278 45.732 263.95)">
   <path d="m0 0 0.486 0.486-65.979 65.979-42.438 42.437h-0.971l42.923-42.923z" fill="#b3b3b3"/>
  </g>
  <g transform="matrix(.35278 0 0 -.35278 44.476 265.2)">
   <path d="m0 0 0.648 0.648-111.82 111.82h-1.296l46.484-46.484z" fill="#b3b3b3"/>
  </g>
  <g transform="matrix(.35278 0 0 -.35278 43.22 266.46)">
   <path d="m0 0 0.81 0.81-115.21 115.21h-1.62l50.044-50.043z" fill="#b3b3b3"/>
  </g>
  <g transform="matrix(.35278 0 0 -.35278 41.963 267.71)">
   <path d="m0 0 0.972 0.972-65.98 65.98-52.633 52.632h-1.944l53.606-53.604z" fill="#b3b3b3"/>
  </g>
  <g transform="matrix(.35278 0 0 -.35278 40.707 268.97)">
   <path d="m0 0 1.134 1.134-122.01 122.01h-2.269l57.167-57.166z" fill="#b3b3b3"/>
  </g>
  <g transform="matrix(.35278 0 0 -.35278 39.451 270.23)">
   <path d="m0 0 1.296 1.296-122.97 122.97v-2.592l55.699-55.699z" fill="#b3b3b3"/>
  </g>
  <g transform="matrix(.35278 0 0 -.35278 38.195 271.48)">
   <path d="m0 0 1.458 1.458-65.979 65.98-53.596 53.595v-2.915l52.138-52.138z" fill="#b3b3b3"/>
  </g>
  <g transform="matrix(.35278 0 0 -.35278 48.186 261.49)">
   <path d="m0 0 0.486 0.486-65.979 65.979-35.48 35.479h-0.971l35.965-35.965z" fill="#b3b3b3"/>
  </g>
  <g transform="matrix(.35278 0 0 -.35278 26.338 236.79)">
   <path d="m0 0-0.648-0.648 65.979-65.98 0.648 0.648z" fill="#b3b3b3"/>
  </g>
  <g transform="matrix(.35278 0 0 -.35278 50.584 259.09)">
   <path d="m0 0 0.81 0.81-65.98 65.979-28.357 28.358h-1.62l29.168-29.168z" fill="#b3b3b3"/>
  </g>
  <g transform="matrix(.35278 0 0 -.35278 51.783 257.89)">
   <path d="m0 0 0.972 0.972-90.778 90.778h-1.944l25.771-25.771z" fill="#b3b3b3"/>
  </g>
  <g transform="matrix(.35278 0 0 -.35278 52.982 256.7)">
   <path d="m0 0 1.134 1.134-87.217 87.216h-2.268l22.372-22.371z" fill="#b3b3b3"/>
  </g>
  <g transform="matrix(.35278 0 0 -.35278 54.181 255.5)">
   <path d="m0 0 1.296 1.296-65.98 65.98-17.675 17.676h-2.592l18.972-18.973z" fill="#b3b3b3"/>
  </g>
  <g transform="matrix(.35278 0 0 -.35278 55.38 254.3)">
   <path d="m0 0 1.458 1.458-65.979 65.98-14.117 14.115h-2.916l15.575-15.574z" fill="#b3b3b3"/>
  </g>
  <g transform="matrix(.35278 0 0 -.35278 56.579 253.1)">
   <path d="m0 0 1.62 1.62-65.979 65.98-10.556 10.555h-3.24l12.176-12.176z" fill="#b3b3b3"/>
  </g>
  <g transform="matrix(.35278 0 0 -.35278 70.378 285.85)">
   <path d="m0 0-65.979 65.979-0.325-0.324 65.98-65.979z" fill="#b3b3b3"/>
  </g>
  <g transform="matrix(.35278 0 0 -.35278 69.179 287.05)">
   <path d="m0 0-65.979 65.979-0.486-0.486 65.98-65.979z" fill="#b3b3b3"/>
  </g>
  <g transform="matrix(.35278 0 0 -.35278 67.98 288.25)">
   <path d="m0 0-65.979 65.979-0.648-0.647 65.979-65.98z" fill="#b3b3b3"/>
  </g>
  <g transform="matrix(.35278 0 0 -.35278 66.782 289.45)">
   <path d="m0 0-65.979 65.979-0.81-0.81 65.979-65.979z" fill="#b3b3b3"/>
  </g>
  <g transform="matrix(.35278 0 0 -.35278 65.582 290.65)">
   <path d="m0 0-65.979 65.98-0.972-0.972 65.979-65.98z" fill="#b3b3b3"/>
  </g>
  <g transform="matrix(.35278 0 0 -.35278 64.383 291.85)">
   <path d="m0 0-65.979 65.979-1.134-1.133 65.979-65.98z" fill="#b3b3b3"/>
  </g>
  <g transform="matrix(.35278 0 0 -.35278 63.185 293.05)">
   <path d="m0 0-65.979 65.98-1.296-1.296 65.979-65.98z" fill="#b3b3b3"/>
  </g>
  <g transform="matrix(.35278 0 0 -.35278 61.986 294.24)">
   <path d="m0 0-65.98 65.979-1.458-1.458 65.98-65.979z" fill="#b3b3b3"/>
  </g>
  <g transform="matrix(.35278 0 0 -.35278 71.634 284.6)">
   <path d="m0 0-65.979 65.979-0.487-0.486 65.98-65.979z" fill="#b3b3b3"/>
  </g>
  <g transform="matrix(.35278 0 0 -.35278 72.89 283.34)">
   <path d="m0 0-65.979 65.979-0.649-0.647 65.98-65.98z" fill="#b3b3b3"/>
  </g>
  <g transform="matrix(.35278 0 0 -.35278 74.146 282.08)">
   <path d="m0 0-65.979 65.979-0.811-0.81 65.979-65.979z" fill="#b3b3b3"/>
  </g>
  <g transform="matrix(.35278 0 0 -.35278 75.402 280.83)">
   <path d="m0 0-65.98 65.979-0.972-0.972 65.979-65.979z" fill="#b3b3b3"/>
  </g>
  <g transform="matrix(.35278 0 0 -.35278 76.658 279.57)">
   <path d="m0 0-65.979 65.979-1.134-1.134 65.979-65.979z" fill="#b3b3b3"/>
  </g>
  <g transform="matrix(.35278 0 0 -.35278 77.914 278.32)">
   <path d="m0 0-65.979 65.979-1.296-1.295 65.979-65.98z" fill="#b3b3b3"/>
  </g>
  <g transform="matrix(.35278 0 0 -.35278 79.17 277.06)">
   <path d="m0 0-65.979 65.979-1.459-1.457 65.98-65.98z" fill="#b3b3b3"/>
  </g>
  <g transform="matrix(.35278 0 0 -.35278 80.141 276.09)">
   <path d="m0 0 0.811 0.81-65.98 65.98-1.62-1.62 65.979-65.98z" fill="#b3b3b3"/>
  </g>
  <g transform="matrix(.35278 0 0 -.35278 37.225 272.45)">
   <path d="m0 0-0.811-0.811 65.98-65.979 0.81 0.811 0.81 0.809-65.979 65.98z" fill="#b3b3b3"/>
  </g>
  <g transform="matrix(.35278 0 0 -.35278 70.264 285.97)">
   <path d="m0 0 35.823-35.823h0.649l-36.148 36.147z" fill="#b3b3b3"/>
  </g>
  <g transform="matrix(.35278 0 0 -.35278 69.008 287.22)">
   <path d="m0 0 32.263-32.263h0.971l-32.749 32.749z" fill="#b3b3b3"/>
  </g>
  <g transform="matrix(.35278 0 0 -.35278 67.752 288.48)">
   <path d="m0 0 28.702-28.703h1.296l-29.351 29.351z" fill="#b3b3b3"/>
  </g>
  <g transform="matrix(.35278 0 0 -.35278 66.496 289.73)">
   <path d="m0 0 25.142-25.142h1.62l-25.952 25.952z" fill="#b3b3b3"/>
  </g>
  <g transform="matrix(.35278 0 0 -.35278 65.24 290.99)">
   <path d="m0 0 21.581-21.581h1.943l-22.552 22.553z" fill="#b3b3b3"/>
  </g>
  <g transform="matrix(.35278 0 0 -.35278 63.983 292.25)">
   <path d="m0 0 18.021-18.02h2.267l-19.154 19.154z" fill="#b3b3b3"/>
  </g>
  <g transform="matrix(.35278 0 0 -.35278 62.727 293.5)">
   <path d="m0 0 14.46-14.459h2.592l-15.756 15.755z" fill="#b3b3b3"/>
  </g>
  <g transform="matrix(.35278 0 0 -.35278 61.472 294.76)">
   <path d="m0 0 10.899-10.899h2.916l-12.357 12.357z" fill="#b3b3b3"/>
  </g>
  <g transform="matrix(.35278 0 0 -.35278 71.462 284.77)">
   <path d="m0 0 39.222-39.221h0.971l-39.707 39.707z" fill="#b3b3b3"/>
  </g>
  <g transform="matrix(.35278 0 0 -.35278 72.661 283.57)">
   <path d="m0 0 42.619-42.619h1.297l-43.268 43.267z" fill="#b3b3b3"/>
  </g>
  <g transform="matrix(.35278 0 0 -.35278 73.86 282.37)">
   <path d="m0 0 46.018-46.018h1.62l-46.827 46.828z" fill="#b3b3b3"/>
  </g>
  <g transform="matrix(.35278 0 0 -.35278 75.059 281.17)">
   <path d="m0 0 49.416-49.416h1.944l-50.387 50.388z" fill="#b3b3b3"/>
  </g>
  <g transform="matrix(.35278 0 0 -.35278 76.258 279.97)">
   <path d="m0 0 52.815-52.815h2.268l-53.948 53.949z" fill="#b3b3b3"/>
  </g>
  <g transform="matrix(.35278 0 0 -.35278 77.457 278.77)">
   <path d="m0 0 56.214-56.214h2.592l-57.51 57.51z" fill="#b3b3b3"/>
  </g>
  <g transform="matrix(.35278 0 0 -.35278 78.656 277.57)">
   <path d="m0 0 59.612-59.612h2.916l-61.07 61.07z" fill="#b3b3b3"/>
  </g>
  <g transform="matrix(.35278 0 0 -.35278 60.502 295.73)">
   <path d="m0 0-0.811-0.81 7.341-7.34h3.24l-8.96 8.96z" fill="#b3b3b3"/>
  </g>
  <g transform="matrix(.35278 0 0 -.35278 4.1866 258.94)">
   <path d="m0 0-21.715 21.715v-0.648l21.391-21.391z" fill="#b3b3b3"/>
  </g>
  <g transform="matrix(.35278 0 0 -.35278 4.0726 259.05)">
   <path d="m0 0 65.979-65.98 0.324 0.324-65.98 65.98z" fill="#b3b3b3"/>
  </g>
  <g transform="matrix(.35278 0 0 -.35278 26.093 283.58)">
   <path d="m0 0 0.485 0.486-84.296 84.296v-0.971l17.832-17.832z" fill="#b3b3b3"/>
  </g>
  <g transform="matrix(.35278 0 0 -.35278 24.837 284.84)">
   <path d="m0 0 0.648 0.648-80.898 80.898v-1.296l14.271-14.271z" fill="#b3b3b3"/>
  </g>
  <g transform="matrix(.35278 0 0 -.35278 23.58 286.1)">
   <path d="m0 0 0.81 0.81-65.98 65.979-11.519 11.52v-1.62l10.71-10.71z" fill="#b3b3b3"/>
  </g>
  <g transform="matrix(.35278 0 0 -.35278 22.324 287.35)">
   <path d="m0 0 0.973 0.972-65.981 65.979-8.12 8.121v-1.944l7.149-7.149z" fill="#b3b3b3"/>
  </g>
  <g transform="matrix(.35278 0 0 -.35278 21.068 288.61)">
   <path d="m0 0 1.134 1.134-65.98 65.979-4.722 4.723v-2.268l3.589-3.589z" fill="#b3b3b3"/>
  </g>
  <g transform="matrix(.35278 0 0 -.35278 19.812 289.87)">
   <path d="m0 0 1.297 1.296-65.981 65.98-1.323 1.324v-2.593l0.028-0.028z" fill="#b3b3b3"/>
  </g>
  <g transform="matrix(.35278 0 0 -.35278 19.07 290.61)">
   <path d="m0 0-63.905 63.905v-2.916l62.447-62.447z" fill="#b3b3b3"/>
  </g>
  <g transform="matrix(.35278 0 0 -.35278 28.547 281.13)">
   <path d="m0 0 0.485 0.486-65.978 65.98-25.276 25.275v-0.972l24.79-24.789z" fill="#b3b3b3"/>
  </g>
  <g transform="matrix(.35278 0 0 -.35278 29.746 279.93)">
   <path d="m0 0 0.647 0.648-94.814 94.814v-1.295l28.188-28.188z" fill="#b3b3b3"/>
  </g>
  <g transform="matrix(.35278 0 0 -.35278 30.945 278.73)">
   <path d="m0 0 0.81 0.81-98.375 98.375v-1.62l31.585-31.586z" fill="#b3b3b3"/>
  </g>
  <g transform="matrix(.35278 0 0 -.35278 32.144 277.53)">
   <path d="m0 0 0.972 0.972-101.94 101.94v-1.944l34.984-34.985z" fill="#b3b3b3"/>
  </g>
  <g transform="matrix(.35278 0 0 -.35278 33.343 276.33)">
   <path d="m0 0 1.134 1.134-105.5 105.5v-2.268l38.384-38.384z" fill="#b3b3b3"/>
  </g>
  <g transform="matrix(.35278 0 0 -.35278 34.542 275.14)">
   <path d="m0 0 1.296 1.296-109.06 109.06v-2.592l41.782-41.782z" fill="#b3b3b3"/>
  </g>
  <g transform="matrix(.35278 0 0 -.35278 35.741 273.94)">
   <path d="m0 0 1.458 1.458-65.979 65.98-46.638 46.638v-2.916l45.18-45.181z" fill="#b3b3b3"/>
  </g>
  <g transform="matrix(.35278 0 0 -.35278 36.939 272.74)">
   <path d="m0 0 0.811 0.81 0.809 0.81-116.18 116.18v-3.24l48.579-48.579z" fill="#b3b3b3"/>
  </g>
  <g transform="matrix(.35278 0 0 -.35278 27.349 282.33)">
   <path d="m0 0 46.133-46.132h0.647l-46.456 46.456z" fill="#b3b3b3"/>
  </g>
  <g transform="matrix(.35278 0 0 -.35278 26.093 283.58)">
   <path d="m0 0 42.572-42.572h0.972l-43.058 43.058z" fill="#b3b3b3"/>
  </g>
  <g transform="matrix(.35278 0 0 -.35278 24.837 284.84)">
   <path d="m0 0 39.012-39.012h1.296l-39.66 39.66z" fill="#b3b3b3"/>
  </g>
  <g transform="matrix(.35278 0 0 -.35278 23.58 286.1)">
   <path d="m0 0 35.451-35.451h1.62l-36.26 36.261z" fill="#b3b3b3"/>
  </g>
  <g transform="matrix(.35278 0 0 -.35278 22.324 287.35)">
   <path d="m0 0 31.891-31.89h1.943l-32.861 32.862z" fill="#b3b3b3"/>
  </g>
  <g transform="matrix(.35278 0 0 -.35278 21.068 288.61)">
   <path d="m0 0 28.33-28.33h2.268l-29.464 29.464z" fill="#b3b3b3"/>
  </g>
  <g transform="matrix(.35278 0 0 -.35278 19.812 289.87)">
   <path d="m0 0 24.77-24.769h2.591l-26.065 26.065z" fill="#b3b3b3"/>
  </g>
  <g transform="matrix(.35278 0 0 -.35278 18.556 291.12)">
   <path d="m0 0 21.209-21.209h2.916l-22.667 22.667z" fill="#b3b3b3"/>
  </g>
  <g transform="matrix(.35278 0 0 -.35278 28.547 281.13)">
   <path d="m0 0 49.53-49.53h0.972l-50.016 50.016z" fill="#b3b3b3"/>
  </g>
  <g transform="matrix(.35278 0 0 -.35278 29.746 279.93)">
   <path d="m0 0 52.929-52.928h1.296l-53.578 53.576z" fill="#b3b3b3"/>
  </g>
  <g transform="matrix(.35278 0 0 -.35278 30.945 278.73)">
   <path d="m0 0 56.327-56.327h1.619l-57.136 57.137z" fill="#b3b3b3"/>
  </g>
  <g transform="matrix(.35278 0 0 -.35278 32.144 277.53)">
   <path d="m0 0 59.726-59.725h1.943l-60.697 60.697z" fill="#b3b3b3"/>
  </g>
  <g transform="matrix(.35278 0 0 -.35278 33.343 276.33)">
   <path d="m0 0 63.124-63.125h2.269l-64.259 64.259z" fill="#b3b3b3"/>
  </g>
  <g transform="matrix(.35278 0 0 -.35278 34.999 274.68)">
   <path d="m0 0-1.296-1.296 65.981-65.979 1.295 1.296z" fill="#b3b3b3"/>
  </g>
  <g transform="matrix(.35278 0 0 -.35278 36.255 273.42)">
   <path d="m0 0-1.458-1.458 65.979-65.98 1.458 1.458z" fill="#b3b3b3"/>
  </g>
  <g transform="matrix(.35278 0 0 -.35278 17.586 292.09)">
   <path d="m0 0-0.81-0.81 17.65-17.649h3.24l-19.269 19.269z" fill="#b3b3b3"/>
  </g>
  <g transform="matrix(.35278 0 0 -.35278 59.017 297.21)">
   <path d="m0 0 3.941-3.941h2.916l-5.399 5.399z" fill="#b3b3b3"/>
  </g>
  <g transform="matrix(.35278 0 0 -.35278 -3.4739 290.78)">
   <path d="m0 0 22.163-22.163h0.648l-22.811 22.811z" fill="#b3b3b3"/>
  </g>
  <g transform="matrix(.35278 0 0 -.35278 -3.4739 293.3)">
   <path d="m0 0 15.043-15.042h0.972l-16.015 16.014z" fill="#b3b3b3"/>
  </g>
  <g transform="matrix(.35278 0 0 -.35278 -3.4739 288.39)">
   <path d="m0 0 28.958-28.958h0.972l-29.93 29.93z" fill="#b3b3b3"/>
  </g>
  <g transform="matrix(.35278 0 0 -.35278 -3.4739 285.99)">
   <path d="m0 0 35.755-35.755h1.296l-37.051 37.051z" fill="#b3b3b3"/>
  </g>
  <g transform="matrix(.35278 0 0 -.35278 -3.4739 283.02)">
   <path d="m0 0v-1.62l41.895-41.895 0.81 0.81z" fill="#b3b3b3"/>
  </g>
  <g transform="matrix(.35278 0 0 -.35278 -3.4739 280.51)">
   <path d="m0 0v-1.944l45.293-45.294 0.972 0.972z" fill="#b3b3b3"/>
  </g>
  <g transform="matrix(.35278 0 0 -.35278 14.104 295.57)">
   <path d="m0 0-49.826 49.827v-2.268l48.692-48.693z" fill="#b3b3b3"/>
  </g>
  <g transform="matrix(.35278 0 0 -.35278 15.36 294.32)">
   <path d="m0 0-53.387 53.387v-2.592l52.091-52.091z" fill="#b3b3b3"/>
  </g>
  <g transform="matrix(.35278 0 0 -.35278 16.616 293.06)">
   <path d="m0 0-56.947 56.947v-2.916l55.489-55.489z" fill="#b3b3b3"/>
  </g>
  <g transform="matrix(.35278 0 0 -.35278 17.586 292.09)">
   <path d="m0 0 0.811 0.81-60.508 60.508v-3.24l58.887-58.888z" fill="#b3b3b3"/>
  </g>
  <g transform="matrix(.35278 0 0 -.35278 12.504 297.17)">
   <path d="m0 0 4.056-4.055h1.943l-5.026 5.027z" fill="#b3b3b3"/>
  </g>
  <g transform="matrix(.35278 0 0 -.35278 13.704 295.97)">
   <path d="m0 0 7.454-7.454h2.269l-8.588 8.588z" fill="#b3b3b3"/>
  </g>
  <g transform="matrix(.35278 0 0 -.35278 14.903 294.77)">
   <path d="m0 0 10.853-10.853h2.591l-12.148 12.149z" fill="#b3b3b3"/>
  </g>
  <g transform="matrix(.35278 0 0 -.35278 16.101 293.58)">
   <path d="m0 0 14.251-14.251h2.916l-15.709 15.709z" fill="#b3b3b3"/>
  </g>
 </g>
</svg>
