{
  "accessors": [
    {
      "bufferView": 1,
      "componentType": 5126,
      "count": 1830,
      "max": [
        38.022544860839844,
        38.012096405029297,
        21.383102416992188
      ],
      "min": [
        -37.980754852294922,
        -38.012096405029297,
        -1.6994709968566895
      ],
      "type": "VEC3"
    },
    {
      "bufferView": 1,
      "byteOffset": 21960,
      "componentType": 5126,
      "count": 1830,
      "max": [
        1,
        0.99972528219223022,
        1
      ],
      "min": [
        -0.99890100955963135,
        -0.99972528219223022,
        -1
      ],
      "type": "VEC3"
    },
    {
      "bufferView": 2,
      "componentType": 5126,
      "count": 1830,
      "max": [
        1,
        1,
        0.9990723729133606,
        1
      ],
      "min": [
        -1,
        -0.9989890456199646,
        -0.99959230422973633,
        1
      ],
      "type": "VEC4"
    },
    {
      "bufferView": 0,
      "componentType": 5125,
      "count": 8040,
      "max": [
        1829
      ],
      "min": [
        0
      ],
      "type": "SCALAR"
    },
    {
      "bufferView": 1,
      "byteOffset": 43920,
      "componentType": 5126,
      "count": 4448,
      "max": [
        80.730369567871094,
        49.03125,
        50.048469543457031
      ],
      "min": [
        -19.366539001464844,
        -101.05576324462891,
        -50.048458099365234
      ],
      "type": "VEC3"
    },
    {
      "bufferView": 1,
      "byteOffset": 97296,
      "componentType": 5126,
      "count": 4448,
      "max": [
        1,
        0.99999994039535522,
        1
      ],
      "min": [
        -1,
        -1,
        -1
      ],
      "type": "VEC3"
    },
    {
      "bufferView": 0,
      "byteOffset": 32160,
      "componentType": 5125,
      "count": 25536,
      "max": [
        4447
      ],
      "min": [
        0
      ],
      "type": "SCALAR"
    },
    {
      "bufferView": 1,
      "byteOffset": 150672,
      "componentType": 5126,
      "count": 2034,
      "max": [
        50.404708862304688,
        50.404708862304688,
        81.669303894042969
      ],
      "min": [
        -50.404708862304688,
        -50.404708862304688,
        0
      ],
      "type": "VEC3"
    },
    {
      "bufferView": 1,
      "byteOffset": 175080,
      "componentType": 5126,
      "count": 2034,
      "max": [
        1,
        1,
        1
      ],
      "min": [
        -1,
        -1,
        -1
      ],
      "type": "VEC3"
    },
    {
      "bufferView": 2,
      "byteOffset": 29280,
      "componentType": 5126,
      "count": 2034,
      "max": [
        1,
        1,
        1,
        1
      ],
      "min": [
        -1,
        -1,
        -1,
        1
      ],
      "type": "VEC4"
    },
    {
      "bufferView": 0,
      "byteOffset": 134304,
      "componentType": 5125,
      "count": 9408,
      "max": [
        2033
      ],
      "min": [
        0
      ],
      "type": "SCALAR"
    }
  ],
  "asset": {
    "extras": {
      "author": "nomercy.rms (https://sketchfab.com/nomercy.rms)",
      "license": "CC-BY-4.0 (http://creativecommons.org/licenses/by/4.0/)",
      "source": "https://sketchfab.com/models/4b470d0ca2de4cb1b03d741111c89ab3",
      "title": "Pill Bottle"
    },
    "generator": "Sketchfab-3.18.6",
    "version": "2.0"
  },
  "bufferViews": [
    {
      "buffer": 0,
      "byteLength": 171936,
      "byteOffset": 0,
      "name": "floatBufferViews",
      "target": 34963
    },
    {
      "buffer": 0,
      "byteLength": 199488,
      "byteOffset": 171936,
      "byteStride": 12,
      "name": "floatBufferViews",
      "target": 34962
    },
    {
      "buffer": 0,
      "byteLength": 61824,
      "byteOffset": 371424,
      "byteStride": 16,
      "name": "floatBufferViews",
      "target": 34962
    }
  ],
  "buffers": [
    {
      "byteLength": 433248,
      "uri": "scene.bin"
    }
  ],
  "materials": [
    {
      "doubleSided": true,
      "emissiveFactor": [
        0,
        0,
        0
      ],
      "name": "07_-_Default",
      "pbrMetallicRoughness": {
        "baseColorFactor": [
          0.41656736490000001,
          0.18200755830000001,
          0.0066114533999999999,
          1
        ],
        "metallicFactor": 0.4772916794,
        "roughnessFactor": 0.10395832059999999
      }
    },
    {
      "alphaMode": "BLEND",
      "doubleSided": true,
      "emissiveFactor": [
        0,
        0,
        0
      ],
      "name": "glass",
      "pbrMetallicRoughness": {
        "baseColorFactor": [
          0.59464692789999996,
          0.67534278839999995,
          0.77551632930000003,
          0.80395832060000005
        ],
        "metallicFactor": 0,
        "roughnessFactor": 0.59999999999999998
      }
    }
  ],
  "meshes": [
    {
      "name": "ChamferCyl001_07 - Default_0",
      "primitives": [
        {
          "attributes": {
            "NORMAL": 1,
            "POSITION": 0,
            "TANGENT": 2
          },
          "indices": 3,
          "material": 0,
          "mode": 4
        }
      ]
    },
    {
      "name": "Line001_glass_0",
      "primitives": [
        {
          "attributes": {
            "NORMAL": 5,
            "POSITION": 4
          },
          "indices": 6,
          "material": 1,
          "mode": 4
        }
      ]
    },
    {
      "name": "Tube001_07 - Default_0",
      "primitives": [
        {
          "attributes": {
            "NORMAL": 8,
            "POSITION": 7,
            "TANGENT": 9
          },
          "indices": 10,
          "material": 0,
          "mode": 4
        }
      ]
    }
  ],
  "nodes": [
    {
      "children": [
        1
      ],
      "name": "RootNode (gltf orientation matrix)",
      "rotation": [
        -0.70710678118654746,
        -0,
        -0,
        0.70710678118654757
      ]
    },
    {
      "children": [
        2
      ],
      "name": "RootNode (model correction matrix)"
    },
    {
      "children": [
        3
      ],
      "matrix": [
        1,
        0,
        0,
        0,
        0,
        0,
        1,
        0,
        0,
        -1,
        0,
        0,
        0,
        0,
        0,
        1
      ],
      "name": "cf5750c26bfd481487639139a211bf60.fbx"
    },
    {
      "children": [
        4,
        6,
        8
      ],
      "name": "RootNode"
    },
    {
      "children": [
        5
      ],
      "matrix": [
        0.11487869110246174,
        5.5511151231257827e-17,
        -0.99337952783947858,
        0,
        -0.99337952783947858,
        0,
        -0.11487869110246174,
        0,
        -5.5511151231257827e-17,
        1,
        0,
        0,
        -17.960775375366211,
        89.44671630859375,
        0.0051941866986453533,
        1
      ],
      "name": "ChamferCyl001"
    },
    {
      "mesh": 0,
      "name": "ChamferCyl001_07 - Default_0"
    },
    {
      "children": [
        7
      ],
      "matrix": [
        0.11487857346638874,
        -2.9802322571452546e-08,
        -0.99337954144341356,
        0,
        2.8368579558606666e-07,
        0.99999999999995981,
        2.8056717718423915e-09,
        0,
        0.99337954144337359,
        -2.8212997710406104e-07,
        0.11487857346639252,
        0,
        -21.485477447509766,
        41.009574890136719,
        30.483980178833008,
        1
      ],
      "name": "Line001"
    },
    {
      "mesh": 1,
      "name": "Line001_glass_0"
    },
    {
      "children": [
        9
      ],
      "matrix": [
        0.98656256045192592,
        0,
        -0.1633839475424069,
        0,
        -0.1633839475424069,
        0,
        -0.98656256045192592,
        0,
        0,
        1,
        0,
        0,
        -17.960779190063477,
        -32.189231872558594,
        0.0051937289535999298,
        1
      ],
      "name": "Tube001"
    },
    {
      "mesh": 2,
      "name": "Tube001_07 - Default_0"
    }
  ],
  "scene": 0,
  "scenes": [
    {
      "name": "OSG_Scene",
      "nodes": [
        0
      ]
    }
  ]
}

